{"title":"The Legend of Tarzan 2016 HDTS XviD-VAiN","uid":15256449,"size":1589756259,"categoryP":"video","categoryS":"movies","magnet":"?xt=urn:btih:029e703d49816550b9e10a66133ba8f4ea361cca&amp;dn=The+Legend+of+Tarzan+2016+HDTS+XviD-VAiN&amp;tr=udp%3A%2F%2Ftracker.leechers-paradise.org%3A6969&amp;tr=udp%3A%2F%2Fzer0day.ch%3A1337&amp;tr=udp%3A%2F%2Fopen.demonii.com%3A1337&amp;tr=udp%3A%2F%2Ftracker.coppersurfer.tk%3A6969&amp;tr=udp%3A%2F%2Fexodus.desync.com%3A6969","seeders":8,"leechers":2,"uploader":"makintos13","files":3,"time":1468130848,"description":"The Legend of Tarzan 2016 HDTS XviD-VAiN\r\n\r\nscreens:\r\n \nhttps://imgmak.com/TjK\r\n \nhttps://imgmak.com/TjT\r\n \nhttps://imgmak.com/Tja\r\n \nhttps://imgmak.com/Tjp\r\n \nhttps://imgmak.com/TjR\r\n\r\n\r\nThe.Legend.of.Tarzan.2016.HDTS.XviD-VAiN\r\n\r\niMDB........: http://www.imdb.com/title/tt0918940/\r\n\r\n\r\n\r\nT E C H N i C A L . i N F O . . .\r\n\r\nBasic Information\r\nFormat : AVI\r\nFormat/Info : Audio Video Interleave\r\nFile size : 1.47 GiB\r\nDuration : 1h 45mn\r\nOverall bit rate : 1 990 Kbps\r\nWriting application : VirtualDubMod 1.5.10.2 (build 2540/release)\r\nWriting library : VirtualDubMod build 2540/release\r\n\r\nVideo\r\nID : 0\r\nFormat : MPEG-4 Visual\r\nFormat profile : Advanced   \r\nFormat settings, BVOP : 2\r\nFormat settings, QPel : No\r\nFormat settings, GMC : No warppoints\r\nFormat settings, Matrix : Default (H.263)\r\nMuxing mode : Packed bitstream\r\nCodec ID : XVID\r\nCodec ID/Hint : XviD\r\nDuration : 1h 45mn\r\nBit rate : 1 786 Kbps\r\nWidth : 720 pixels\r\nHeight : 304 pixels\r\nDisplay aspect ratio : 2.35:1\r\nFrame rate : 30.000 fps\r\nColor space : YUV\r\nChroma subsampling : 4:2:0\r\nBit depth : 8 bits\r\nScan type : Progressive\r\nCompression mode : Lossy\r\nBits/(Pixel*Frame) : 0.272\r\nStream size : 1.32 GiB (90%)\r\nWriting library : XviD 64\r\n\r\nAudio\r\nID : 1\r\nFormat : MPEG Audio\r\nFormat version : Version 1\r\nFormat profile : Layer 3\r\nMode : Joint stereo\r\nMode extension : MS Stereo\r\nCodec ID : 55\r\nCodec ID/Hint : MP3\r\nDuration : 1h 45mn\r\nBit rate mode : Constant\r\nBit rate : 192 Kbps\r\nChannel(s) : 2 channels\r\nSampling rate : 48.0 KHz\r\nCompression mode : Lossy\r\nStream size : 145 MiB (10%)\r\nAlignment : Aligned on interleaves\r\nInterleave, duration : 33 ms (1.00 video frame)\r\nInterleave, preload duratio : 504 ms\r\n\r\nE N C O D E R S . N O T E S . . .\r\n\r\nSOURCE......: ViDEO...X264-CPG\r\n............: AUDiO...X264-CPG\r\nSAMPLE......: Yippers\r\nADDED NOTE..: Love Me.... Love You...\r\nTook sum ol' poo-shine and polished this turd","torrent":{"xt":"urn:btih:029e703d49816550b9e10a66133ba8f4ea361cca","amp;dn":"The+Legend+of+Tarzan+2016+HDTS+XviD-VAiN","amp;tr":["udp%3A%2F%2Ftracker.leechers-paradise.org%3A6969","udp%3A%2F%2Fzer0day.ch%3A1337","udp%3A%2F%2Fopen.demonii.com%3A1337","udp%3A%2F%2Ftracker.coppersurfer.tk%3A6969","udp%3A%2F%2Fexodus.desync.com%3A6969"],"infoHash":"029e703d49816550b9e10a66133ba8f4ea361cca","infoHashBuffer":{"type":"Buffer","data":[2,158,112,61,73,129,101,80,185,225,10,102,19,59,168,244,234,54,28,202]},"announce":[],"urlList":[]}}